<svg xmlns="http://www.w3.org/2000/svg" viewBox="0 0 48 48">
  <g id="maker-icon-face">
    <path d="M50,9a5,5,0,0,1,5,5V50a5,5,0,0,1-5,5H14a5,5,0,0,1-5-5V14a5,5,0,0,1,5-5H50m0-1H14a6,6,0,0,0-6,6V50a6,6,0,0,0,6,6H50a6,6,0,0,0,6-6V14a6,6,0,0,0-6-6Z" transform="translate(-8 -8)"/>
  </g>
  <g id="maker-icon-mouth">
    <path d="M45,37A11,11,0,0,1,34,47H30A11,11,0,0,1,19.05,37h2A9,9,0,0,0,30,45h4a9,9,0,0,0,8.94-8h2m1-1H42a8,8,0,0,1-8,8H30a8,8,0,0,1-8-8H18A12,12,0,0,0,30,48h4A12,12,0,0,0,46,36Z" transform="translate(-8 -8)"/>
  </g>
  <g id="maker-icon-eyes">
    <path d="M47,17V27H37V17H47m0-1H37a1,1,0,0,0-1,1V27a1,1,0,0,0,1,1H47a1,1,0,0,0,1-1V17a1,1,0,0,0-1-1Z" transform="translate(-8 -8)"/>
    <path d="M27,17V27H17V17H27m0-1H17a1,1,0,0,0-1,1V27a1,1,0,0,0,1,1H27a1,1,0,0,0,1-1V17a1,1,0,0,0-1-1Z" transform="translate(-8 -8)"/>
  </g>
</svg>
